<svg version="1.0" xmlns="http://www.w3.org/2000/svg" width="800.000000" height="800.000000" viewBox="0 0 800.000000 800.000000" preserveAspectRatio="xMidYMid meet">
  <metadata>
    <rdf:RDF xmlns:rdf="http://www.w3.org/1999/02/22-rdf-syntax-ns#" xmlns:rdfs="http://www.w3.org/2000/01/rdf-schema#" xmlns:dc="http://purl.org/dc/elements/1.1/">
      <rdf:Description dc:format="image/svg+xml" dc:Label="1" dc:ContentProducer="001191330110MACRLGPT8B00000" dc:ProduceID="424883358" dc:ReservedCode1="utEI957m6J1RRKNzsfGNJ/IpDIz0v7lqkXHdGJaV9f4=" dc:ContentPropagator="001191330110MACRLGPT8B00000" dc:PropagateID="424883358" dc:ReservedCode2="utEI957m6J1RRKNzsfGNJ/IpDIz0v7lqkXHdGJaV9f4="/>
    </rdf:RDF>
  </metadata>
  <g transform="translate(0.000000,800.000000) scale(0.100000,-0.100000)" fill="#000000" stroke="none">
    <path d="M3839 6182 c-55 -28 -554 -317 -979 -567 -129 -76 -347 -203 -485 -283 -137 -80 -262 -156 -277 -170 l-28 -26 0 -1006 c0 -790 3 -1010 13 -1022 11 -16 132 -87 662 -393 425 -246 784 -453 981 -568 72 -43 145 -80 161 -83 24 -5 49 5 129 52 54 31 194 112 309 179 116 67 372 216 570 332 365 213 567 330 708 411 131 75 117 -59 117 1098 l0 1003 -22 25 c-21 23 -461 283 -1268 749 -452 261 -493 284 -516 291 -13 4 -41 -4 -75 -22z m143 -175 c40 -24 132 -78 203 -119 72 -42 195 -114 275 -160 80 -47 219 -128 310 -180 234 -135 641 -372 733 -425 l77 -46 -2 -945 -3 -944 -155 -90 c-483 -281 -627 -365 -835 -486 -126 -74 -277 -161 -335 -195 -58 -33 -157 -91 -220 -129 -64 -37 -122 -68 -130 -68 -8 0 -43 17 -79 39 -36 21 -169 98 -296 171 -197 114 -517 300 -870 505 -49 29 -155 90 -235 135 -80 46 -162 94 -182 107 l-38 23 0 933 0 933 113 64 c61 35 157 90 211 123 108 64 202 119 586 341 140 81 291 169 335 195 80 48 291 171 395 229 30 18 58 32 62 32 4 0 40 -19 80 -43z"/>
    <path d="M3690 5181 c-442 -98 -776 -489 -797 -934 -16 -319 94 -592 326 -809 161 -151 342 -233 571 -259 598 -69 1118 402 1120 1012 0 280 -111 537 -320 733 -124 116 -256 192 -425 242 -123 36 -346 43 -475 15z m424 -151 c237 -64 455 -240 562 -455 240 -485 -8 -1058 -531 -1225 -95 -30 -296 -39 -411 -17 -208 39 -394 156 -524 329 -69 91 -103 154 -136 250 -71 209 -54 457 43 653 157 314 469 503 808 491 69 -3 140 -12 189 -26z"/>
    <path d="M3737 4718 c-22 -20 -32 -59 -87 -333 -34 -170 -64 -317 -67 -325 -3 -9 -13 8 -23 40 -33 107 -19 100 -199 100 -176 0 -191 -5 -191 -68 0 -60 25 -72 150 -72 l109 0 47 -145 c25 -79 53 -150 61 -157 24 -20 83 -15 102 8 10 12 37 116 65 245 76 351 79 365 83 354 1 -5 39 -188 83 -405 59 -295 84 -398 97 -407 28 -21 81 -16 97 10 8 12 35 119 60 237 25 118 54 251 64 295 19 76 20 79 31 52 6 -16 11 -32 11 -37 0 -5 12 -18 26 -29 24 -19 40 -21 168 -21 77 0 146 4 152 8 33 22 39 97 10 121 -7 6 -64 12 -127 13 l-114 3 -42 128 c-42 130 -59 156 -100 157 -61 1 -71 -18 -117 -240 -64 -302 -73 -338 -79 -310 -3 14 -36 176 -72 360 -37 184 -71 352 -76 372 -17 65 -77 88 -122 46z"/>
  </g>
</svg>